<?xml version="1.0" standalone="no"?>
<!DOCTYPE svg PUBLIC "-//W3C//DTD SVG 20010904//EN"
 "http://www.w3.org/TR/2001/REC-SVG-20010904/DTD/svg10.dtd">
<svg version="1.0" xmlns="http://www.w3.org/2000/svg"
 width="900.000000pt" height="900.000000pt" viewBox="0 0 900.000000 900.000000"
 preserveAspectRatio="xMidYMid meet">
<metadata>
Created by potrace 1.14, written by Peter Selinger 2001-2017
</metadata>
<g transform="translate(0.000000,900.000000) scale(0.100000,-0.100000)"
fill="#000000" stroke="none">
<path d="M5560 7127 c-3 -3 -41 -8 -85 -10 -96 -7 -226 -27 -240 -37 -5 -4
-30 -11 -55 -15 -25 -4 -49 -11 -55 -15 -5 -4 -26 -11 -45 -15 -65 -13 -297
-114 -326 -141 -7 -6 -27 -17 -46 -24 -18 -8 -36 -19 -41 -26 -4 -7 -27 -20
-52 -29 -24 -10 -42 -21 -39 -26 3 -5 -2 -9 -11 -9 -9 0 -14 -4 -11 -9 3 -5
-9 -16 -27 -24 -17 -9 -38 -25 -45 -37 -7 -11 -17 -18 -22 -15 -6 3 -10 2 -10
-3 0 -14 -36 -52 -43 -46 -7 8 -42 -26 -42 -40 0 -6 -11 -16 -25 -23 -15 -7
-24 -19 -22 -29 2 -11 -1 -15 -12 -11 -10 4 -17 -2 -22 -16 -9 -28 -22 -37
-56 -37 -19 0 -28 5 -28 16 0 8 -5 12 -10 9 -6 -3 -13 1 -16 9 -3 9 -14 16
-25 16 -10 0 -24 9 -32 21 -8 11 -22 22 -31 23 -9 1 -25 10 -36 18 -10 9 -21
14 -24 11 -3 -4 -6 0 -6 7 0 7 -3 10 -7 7 -3 -4 -12 -2 -20 4 -7 6 -13 8 -13
3 0 -5 -4 -4 -8 2 -8 11 -89 42 -134 51 -16 3 -28 10 -28 15 0 5 -4 7 -9 3 -6
-3 -41 1 -79 9 -71 15 -325 15 -422 1 -51 -8 -185 -49 -247 -76 -24 -11 -50
-19 -58 -19 -9 0 -13 -5 -10 -10 4 -6 -7 -13 -24 -16 -17 -4 -31 -11 -31 -15
0 -5 -12 -15 -27 -22 -16 -6 -41 -24 -56 -39 -16 -16 -33 -29 -38 -29 -19 -3
-24 -5 -37 -12 -7 -5 -10 -12 -7 -16 5 -10 -118 -131 -133 -131 -6 0 -16 -16
-22 -35 -6 -19 -17 -38 -23 -42 -7 -5 -21 -25 -31 -45 -10 -21 -23 -35 -29
-31 -6 3 -8 2 -5 -3 3 -5 -2 -25 -13 -44 -10 -19 -27 -52 -37 -72 -10 -21 -22
-35 -25 -31 -4 3 -7 -11 -7 -33 0 -50 -21 -110 -46 -130 -10 -8 -13 -12 -5 -8
11 5 12 1 7 -20 -10 -38 -18 -156 -20 -271 -1 -69 -5 -100 -13 -100 -6 0 -15
-3 -19 -7 -4 -5 -18 -8 -31 -8 -14 0 -33 -5 -44 -11 -12 -6 -45 -11 -75 -12
-29 -1 -49 -4 -44 -7 6 -3 -14 -12 -42 -19 -29 -7 -72 -19 -96 -27 -24 -8 -48
-11 -54 -8 -6 4 -8 2 -4 -4 4 -6 -7 -13 -26 -17 -18 -4 -40 -13 -48 -20 -12
-11 -61 -35 -80 -40 -3 0 -15 -6 -27 -13 -13 -7 -23 -10 -23 -6 0 4 -10 -2
-22 -13 -27 -24 -70 -48 -80 -45 -5 1 -8 -3 -8 -8 0 -6 -6 -10 -13 -10 -7 0
-18 -9 -25 -20 -7 -11 -17 -20 -23 -20 -11 0 -14 -2 -87 -65 -39 -34 -59 -44
-75 -41 -12 3 -17 3 -11 0 29 -13 -32 -80 -68 -75 -4 0 -5 -6 -2 -14 4 -8 1
-15 -6 -15 -6 0 -9 -4 -6 -9 3 -4 -12 -22 -32 -38 -21 -17 -46 -49 -56 -72
-10 -22 -23 -38 -27 -35 -5 3 -9 -2 -9 -11 0 -8 -9 -23 -20 -32 -11 -10 -20
-24 -20 -33 -1 -19 -21 -45 -39 -51 -8 -3 -15 -17 -17 -32 -1 -15 -10 -34 -18
-43 -9 -8 -16 -22 -16 -31 0 -9 -10 -31 -21 -50 -12 -19 -19 -37 -15 -40 3 -3
-3 -18 -13 -32 -10 -14 -21 -48 -25 -75 -3 -27 -12 -59 -20 -71 -8 -12 -17
-48 -21 -81 -4 -32 -12 -68 -18 -79 -15 -28 -15 -34 -16 -285 -1 -237 1 -266
17 -296 5 -11 10 -30 10 -44 0 -14 9 -53 21 -87 12 -34 21 -73 21 -85 0 -13
11 -45 25 -73 13 -27 25 -60 25 -72 0 -13 4 -23 9 -23 14 0 62 -100 54 -112
-4 -7 -1 -8 7 -3 10 6 12 4 7 -10 -5 -12 0 -25 17 -40 13 -12 27 -31 30 -42 4
-11 20 -32 36 -47 17 -14 30 -32 30 -39 0 -6 20 -34 45 -61 25 -26 45 -51 45
-54 0 -14 53 -72 66 -72 8 0 13 -4 10 -9 -5 -8 20 -36 33 -36 3 0 5 -3 4 -7
-2 -5 0 -7 5 -6 14 3 42 -14 36 -23 -3 -5 7 -14 21 -19 16 -6 23 -14 19 -22
-4 -7 -3 -8 5 -4 13 9 43 -12 36 -24 -3 -5 5 -12 17 -15 13 -4 39 -19 58 -34
63 -47 101 -71 113 -71 7 0 28 -13 47 -30 19 -17 42 -28 51 -25 8 3 26 -4 39
-15 13 -11 32 -20 42 -20 11 0 16 -4 13 -10 -3 -5 0 -7 8 -4 8 3 18 1 22 -5 3
-6 22 -11 41 -11 19 0 34 -4 34 -9 0 -5 15 -12 32 -16 92 -17 167 -40 156 -46
-7 -5 3 -8 22 -7 19 0 76 -2 125 -6 50 -4 470 -9 933 -11 464 -3 848 -7 852
-10 5 -3 19 -1 32 4 16 6 1921 6 2013 0 39 -3 819 12 824 16 4 2 30 7 57 10
66 8 147 27 158 37 6 4 22 8 37 8 15 0 31 5 34 10 3 6 13 10 22 10 8 0 29 6
46 14 111 49 155 71 179 87 14 11 32 19 40 19 7 0 26 11 42 25 16 13 32 23 35
21 4 -3 17 9 30 25 13 17 39 36 58 44 18 8 33 21 33 30 0 8 11 21 25 27 14 6
25 15 25 20 0 5 3 7 8 5 4 -3 16 7 27 20 11 14 32 37 48 51 15 14 27 31 27 37
0 6 15 24 34 40 19 16 33 32 30 37 -7 11 26 58 42 58 15 0 15 1 19 40 1 13 8
26 14 28 6 2 9 8 5 13 -3 5 0 9 5 9 6 0 11 9 11 19 0 11 5 23 10 26 14 8 43
65 46 90 2 18 23 72 60 160 7 17 15 48 18 70 2 22 7 58 10 80 21 145 22 422 2
495 -4 14 -8 36 -10 50 -1 14 -5 31 -9 36 -3 6 -7 28 -8 50 -2 51 -8 75 -18
69 -5 -2 -14 15 -21 38 -24 80 -40 118 -60 139 -11 12 -20 30 -20 40 0 10 -8
26 -17 36 -31 31 -54 72 -47 84 4 6 3 8 -3 5 -10 -6 -50 41 -55 65 -2 7 -11
19 -20 26 -10 7 -18 20 -18 28 0 8 -7 14 -15 14 -8 0 -15 4 -15 9 0 5 -18 27
-40 50 -22 22 -40 46 -40 52 0 5 -4 8 -9 4 -5 -3 -24 9 -43 26 -18 17 -52 44
-76 60 -23 17 -40 34 -38 38 3 4 -5 8 -17 8 -12 1 -23 7 -25 13 -2 5 -9 10
-17 10 -20 0 -39 27 -23 33 7 3 3 6 -9 6 -13 1 -23 6 -23 12 0 5 -5 7 -11 4
-5 -4 -28 5 -49 19 -22 14 -45 26 -53 26 -18 0 -24 63 -13 145 7 58 9 377 3
469 -4 44 -11 84 -17 90 -5 5 -10 20 -10 33 0 30 -23 116 -32 124 -8 5 -19 74
-22 131 0 14 -4 24 -8 22 -12 -7 -38 39 -38 68 0 15 -4 29 -9 33 -6 3 -23 33
-40 68 -44 90 -69 133 -128 219 -29 43 -53 80 -53 83 0 13 -46 75 -56 75 -7 0
-29 23 -50 50 -21 28 -43 50 -49 50 -6 0 -21 18 -34 39 -14 23 -30 37 -38 34
-7 -3 -18 6 -24 21 -7 14 -18 26 -25 26 -7 0 -19 8 -26 18 -7 11 -23 24 -35
31 -13 6 -22 15 -20 19 1 4 -2 9 -8 11 -26 9 -92 45 -107 58 -60 53 -306 166
-453 208 -33 9 -80 23 -105 31 -81 24 -223 44 -360 50 -74 3 -137 4 -140 1z"/>
<path d="M4598 6893 c7 -3 16 -2 19 1 4 3 -2 6 -13 5 -11 0 -14 -3 -6 -6z"/>
<path d="M3768 6733 c6 -2 18 -2 25 0 6 3 1 5 -13 5 -14 0 -19 -2 -12 -5z"/>
<path d="M1885 5360 c4 -6 11 -8 16 -5 14 9 11 15 -7 15 -8 0 -12 -5 -9 -10z"/>
<path d="M1575 5212 c-5 -4 -11 -15 -13 -26 -3 -15 -1 -16 11 -5 10 10 20 40
13 39 -1 0 -5 -4 -11 -8z"/>
<path d="M1175 4809 c-4 -6 -5 -12 -2 -15 2 -3 7 2 10 11 7 17 1 20 -8 4z"/>
<path d="M1793 2343 c-15 -5 -17 -23 -4 -23 5 0 11 7 15 15 3 8 4 15 3 14 -1
0 -8 -3 -14 -6z"/>
<path d="M1716 2265 c-4 -13 -2 -14 14 -5 23 13 26 20 6 20 -8 0 -16 -7 -20
-15z"/>
<path d="M2178 2223 c7 -3 16 -2 19 1 4 3 -2 6 -13 5 -11 0 -14 -3 -6 -6z"/>
</g>
</svg>
